<?xml version="1.0" encoding="utf-8"?>
<!-- Generator: Adobe Illustrator 24.3.0, SVG Export Plug-In . SVG Version: 6.00 Build 0)  -->
<svg version="1.1" id="Capa_1" xmlns="http://www.w3.org/2000/svg" xmlns:xlink="http://www.w3.org/1999/xlink" x="0px" y="0px"
	 viewBox="0 0 1080 1080" style="enable-background:new 0 0 1080 1080;" xml:space="preserve">
<style type="text/css">
	.st0{fill:none;}
	.st1{opacity:0.5;fill:url(#SVGID_1_);}
	.st2{opacity:0.5;fill:url(#SVGID_2_);}
	.st3{fill:url(#SVGID_3_);}
	.st4{fill:#FFFFFF;}
	.st5{fill:#FBF2F4;}
</style>
<polygon class="st0" points="140.17,516.32 130.55,532.97 129.48,534.83 119.87,551.49 140.17,551.49 "/>
<path class="st0" d="M135.89,574.3l-23.51-13.56c-1.33-0.77-2.4-1.85-3.13-3.13c-0.74-1.28-1.14-2.75-1.14-4.27V526.2
	c0-1.53,0.4-3,1.14-4.27c0.73-1.28,1.8-2.36,3.13-3.13l23.51-13.56c1.33-0.75,2.8-1.15,4.27-1.15v-18.32
	c-1.66,0-3.31,0.43-4.81,1.28l-38.47,22.2c-1.49,0.86-2.69,2.08-3.52,3.53c-0.83,1.43-1.29,3.09-1.29,4.81v44.37
	c0,1.72,0.46,3.38,1.29,4.81c0.82,1.44,2.03,2.67,3.52,3.53l38.47,22.2c1.5,0.85,3.15,1.28,4.81,1.28v-18.32
	C138.7,575.44,137.22,575.05,135.89,574.3z"/>
<linearGradient id="SVGID_1_" gradientUnits="userSpaceOnUse" x1="140.1686" y1="461.2624" x2="152.2412" y2="461.2624">
	<stop  offset="0" style="stop-color:#5EA2DB"/>
	<stop  offset="0.2538" style="stop-color:#5898D4"/>
	<stop  offset="0.7539" style="stop-color:#4B7EC0"/>
	<stop  offset="1" style="stop-color:#4570B4"/>
</linearGradient>
<polygon class="st1" points="140.17,461.26 140.17,461.26 140.17,461.26 "/>
<linearGradient id="SVGID_2_" gradientUnits="userSpaceOnUse" x1="140.1686" y1="618.2694" x2="152.2412" y2="618.2694">
	<stop  offset="0" style="stop-color:#5EA2DB"/>
	<stop  offset="0.2538" style="stop-color:#5898D4"/>
	<stop  offset="0.7539" style="stop-color:#4B7EC0"/>
	<stop  offset="1" style="stop-color:#4570B4"/>
</linearGradient>
<polygon class="st2" points="140.17,618.27 140.17,618.27 140.17,618.27 "/>
<linearGradient id="SVGID_3_" gradientUnits="userSpaceOnUse" x1="140.1701" y1="540.2341" x2="1009.2927" y2="540.2341">
	<stop  offset="0" style="stop-color:#11A2DC"/>
	<stop  offset="1" style="stop-color:#0F6285"/>
</linearGradient>
<path class="st3" d="M140.17,461.73c0.33,0,0.65,0.01,0.98,0.04c1.51,0.14,3,0.61,4.36,1.39l58.78,33.91
	c1.65,0.95,2.99,2.32,3.91,3.91c0.16,0.29,0.32,0.59,0.45,0.89c0.64,1.38,0.98,2.9,0.98,4.47v67.8c0,1.57-0.34,3.09-0.98,4.47
	c-0.13,0.3-0.29,0.6-0.45,0.89c-0.92,1.59-2.27,2.96-3.91,3.91l-58.78,33.91c-1.36,0.78-2.85,1.25-4.36,1.39h-0.01
	c-0.33,0.03-0.64,0.04-0.97,0.04h846.22c12.65,0,22.91-10.26,22.91-22.91V484.64c0-12.65-10.26-22.91-22.91-22.91H140.17z"/>
<path class="st4" d="M96.89,509.24l38.47-22.2c1.5-0.85,3.15-1.28,4.81-1.28v-24.5c-1.84,0-3.69,0.48-5.34,1.43L76.05,496.6
	c-1.65,0.95-2.99,2.32-3.91,3.91l21.23,12.26C94.2,511.33,95.4,510.1,96.89,509.24z"/>
<path class="st4" d="M140.17,485.77c1.66,0,3.31,0.43,4.81,1.28l16.56,9.55l21.91,12.64c1.49,0.86,2.69,2.08,3.52,3.53l21.23-12.26
	c-0.92-1.59-2.27-2.96-3.91-3.91l-58.78-33.91c-1.36-0.78-2.85-1.25-4.36-1.39c-0.33-0.03-0.65-0.04-0.98-0.04c0,0,0,0,0,0
	L140.17,485.77C140.17,485.77,140.17,485.77,140.17,485.77z"/>
<path class="st4" d="M135.36,592.48l-38.47-22.2c-1.49-0.85-2.69-2.08-3.52-3.53c-0.83-1.43-1.29-3.09-1.29-4.81v-44.37
	c0-1.72,0.46-3.38,1.29-4.81l-21.23-12.26c-0.92,1.6-1.43,3.44-1.43,5.35v67.8c0,1.91,0.51,3.75,1.43,5.35
	c0.92,1.59,2.27,2.96,3.91,3.91l58.78,33.91c1.66,0.95,3.5,1.43,5.34,1.43v-24.5C138.51,593.76,136.86,593.34,135.36,592.48z"/>
<polygon class="st4" points="140.17,593.77 140.17,618.27 140.17,618.27 140.17,593.77 "/>
<path class="st4" d="M119.87,551.49l-10.61,6.12c0.73,1.28,1.8,2.36,3.13,3.13l23.51,13.56c1.33,0.75,2.8,1.14,4.27,1.14v-23.95
	H119.87z"/>
<path class="st4" d="M140.17,551.49v23.95c1.47,0,2.95-0.39,4.27-1.14l23.51-13.56c1.33-0.77,2.4-1.85,3.14-3.13l-10.61-6.12H140.17
	z"/>
<path class="st4" d="M112.39,518.8c-1.33,0.77-2.4,1.85-3.13,3.13c-0.74,1.28-1.14,2.75-1.14,4.27v27.13c0,1.53,0.4,3,1.14,4.27
	l10.61-6.12l9.62-16.66l1.07-1.85l9.62-16.65v-12.23c-1.47,0-2.94,0.39-4.27,1.15L112.39,518.8z"/>
<path class="st4" d="M149.8,532.98l1.06,1.83l9.63,16.67l10.61,6.12c0.73-1.28,1.14-2.75,1.14-4.27V526.2c0-1.53-0.41-3-1.14-4.27
	c-0.74-1.28-1.81-2.36-3.14-3.13l-23.51-13.56c-1.32-0.75-2.8-1.15-4.27-1.15v12.23L149.8,532.98z"/>
<path class="st4" d="M141.15,618.23c1.51-0.14,3-0.61,4.36-1.39l58.78-33.91c1.65-0.95,2.99-2.32,3.91-3.91
	c0.16-0.29,0.32-0.59,0.45-0.89c0.64-1.38,0.98-2.9,0.98-4.47v-67.8c0-1.57-0.34-3.09-0.98-4.47c-0.13-0.3-0.29-0.6-0.45-0.89
	l-21.23,12.26c0.83,1.43,1.29,3.09,1.29,4.81v44.37c0,1.72-0.46,3.38-1.29,4.81c-0.82,1.44-2.03,2.67-3.52,3.53l-21.91,12.64
	l-16.56,9.55c-1.5,0.85-3.15,1.28-4.81,1.28v24.5c0.33,0,0.64-0.01,0.97-0.04H141.15z"/>
<path class="st4" d="M785.19,563.39h-52.4c-4.1,0-7.63-1.02-10.59-3.06c-2.96-2.04-4.44-4.51-4.44-7.43v-26.27
	c0-2.91,1.45-5.39,4.36-7.43c2.91-2.04,6.44-3.06,10.59-3.06h52.48v10.49h-50.92c-0.26,0-0.58,0.08-0.97,0.25
	c-0.39,0.16-0.58,0.43-0.58,0.79v6.83h52.48v10.49h-52.48v6.83c0,0.18,0.12,0.41,0.35,0.68c0.23,0.27,0.61,0.41,1.13,0.41h51V563.39
	z"/>
<path class="st4" d="M866.08,563.39h-14.95l-3.74-17.31c-0.21-0.73-0.73-1.09-1.56-1.09h-34.41v18.4H796.4V534.5h49.36
	c0.41,0,0.79-0.1,1.13-0.3c0.34-0.2,0.51-0.45,0.51-0.74v-5.79c0-0.69-0.52-1.04-1.56-1.04H796.4v-10.49h50.92
	c4.1,0,7.63,1.02,10.59,3.06c2.96,2.04,4.44,4.51,4.44,7.43v7.86c0,1.02-0.23,2.02-0.7,3c-0.47,0.98-1.19,1.73-2.18,2.24
	c0.78,0.47,1.43,1.28,1.95,2.4c0.36,0.84,0.65,1.78,0.86,2.84L866.08,563.39z"/>
<path class="st4" d="M942.15,534.5c0,2.88-1.47,5.34-4.4,7.4c-2.93,2.06-6.45,3.09-10.55,3.09h-35.97v18.4H876.2V534.5h49.36
	c0.41,0,0.79-0.1,1.13-0.3c0.34-0.2,0.51-0.45,0.51-0.74v-5.79c0-0.69-0.52-1.04-1.56-1.04H876.2v-10.49h50.92
	c4.1,0,7.63,1.02,10.59,3.06c2.96,2.04,4.44,4.51,4.44,7.43V534.5z"/>
<g>
	<g>
		<path class="st5" d="M375.75,516.15l-25.63,42.61c-0.92,1.51-2.24,2.65-3.95,3.44c-1.71,0.79-3.67,1.18-5.89,1.18
			c-2.26,0-4.24-0.38-5.92-1.13c-1.69-0.75-2.99-1.92-3.91-3.5l-25.56-42.61h15.31l18.91,31.39c0.23,0.43,0.62,0.64,1.18,0.64
			c0.65,0,1.04-0.21,1.18-0.64l18.98-31.39H375.75z"/>
		<path class="st5" d="M434.79,563.39h-49.25l3.46-5.56c1.83-2.95,5.12-4.75,8.67-4.75h15.93l-13-21.12
			c-0.28-0.39-0.68-0.59-1.2-0.59c-0.66,0-1.08,0.2-1.27,0.59l-19.29,31.44h-14.91L390,520.82c1.88-3.12,5.02-4.68,9.4-4.68
			c4.33,0,7.44,1.56,9.33,4.68L434.79,563.39z"/>
		<path class="st5" d="M316.7,563.39h-49.25l3.46-5.56c1.83-2.95,5.12-4.75,8.67-4.75h15.93l-13-21.12
			c-0.28-0.39-0.68-0.59-1.2-0.59c-0.66,0-1.08,0.2-1.27,0.59l-19.29,31.44h-14.91l26.07-42.56c1.88-3.12,5.02-4.68,9.4-4.68
			c4.33,0,7.44,1.56,9.33,4.68L316.7,563.39z"/>
		<path class="st5" d="M504.66,560.07c-1.37-2.07-2.46-4.45-3.25-7.17h-36.75c-2.09,0-3.59-1.14-4.51-3.41
			c-0.92-2.28-1.38-5.52-1.38-9.75c0-4.19,0.46-7.42,1.38-9.7c0.93-2.27,2.43-3.41,4.51-3.41h36.52c0.1-0.37,0.2-0.74,0.31-1.1
			c1.17-3.88,2.96-7.01,5.38-9.39h-44.05c-5.9,0-10.6,1.17-14.1,3.5c-3.01,2-5.16,4.91-6.45,8.74c-1.05,3.06-1.57,6.84-1.57,11.36
			c0,6.92,1.48,12.34,4.42,16.27c3.69,4.91,9.59,7.37,17.69,7.37h44.59C506.39,562.41,505.48,561.3,504.66,560.07z"/>
		<path class="st5" d="M582.41,539.74c0,6.92-1.31,12.34-3.93,16.27c-3.28,4.91-8.52,7.37-15.73,7.37h-31.54
			c-7.21,0-12.45-2.46-15.73-7.37c-2.62-3.93-3.93-9.36-3.93-16.27c0-4.51,0.46-8.3,1.39-11.36c1.15-3.82,3.06-6.73,5.73-8.74
			c3.11-2.33,7.29-3.5,12.53-3.5h31.54c7.54,0,12.89,2.46,16.06,7.37C581.21,527.27,582.41,532.68,582.41,539.74z M566.36,539.74
			c0-4.3-0.38-7.55-1.15-9.78c-0.77-2.22-2.1-3.33-4.01-3.33h-28.34c-2.13,0-3.54,1.07-4.22,3.22c-0.68,2.15-1.02,5.44-1.02,9.88
			c0,4.22,0.41,7.47,1.23,9.75c0.82,2.28,2.16,3.41,4.01,3.41h28.34c1.86,0,3.18-1.15,3.97-3.44
			C565.96,547.17,566.36,543.93,566.36,539.74z"/>
		<path class="st5" d="M665.08,563.39h-15.75v-35.72c0-0.29-0.15-0.54-0.45-0.74c-0.3-0.2-0.67-0.3-1.11-0.3h-8.69
			c-1.04,0-1.56,0.35-1.56,1.04v35.72h-15.75v-35.72c0-0.29-0.15-0.54-0.45-0.74c-0.3-0.2-0.67-0.3-1.11-0.3h-8.69
			c-0.44,0-0.81,0.1-1.11,0.3c-0.3,0.2-0.45,0.45-0.45,0.74v35.72h-15.75v-36.75c0-2.91,1.53-5.39,4.59-7.43
			c3.06-2.04,6.77-3.06,11.14-3.06h11.8c1.64,0,3.17,0.16,4.59,0.46c1.42,0.31,2.51,0.79,3.28,1.45c0.71-0.58,1.82-1.05,3.32-1.39
			c1.5-0.35,3.04-0.52,4.63-0.52h11.8c4.37,0,8.08,1.02,11.14,3.06c3.06,2.04,4.59,4.51,4.59,7.43V563.39z"/>
	</g>
</g>
</svg>
