<?xml version="1.0" encoding="UTF-8"?>
<svg width="52" height="52" viewBox="0 0 52 52" fill="none" xmlns="http://www.w3.org/2000/svg">
  <path d="M26.0041 0C11.6657 0 0 11.6553 0 25.9958C0 33.7839 3.44499 40.7794 8.88678 45.5489C13.4652 49.5606 19.4532 52 26.0062 52C32.5488 52 38.5309 49.5686 43.1032 45.5671H43.1012C43.1621 45.5204 43.219 45.4696 43.2718 45.4147C48.6221 40.6474 52 33.7106 52 25.9959C52 11.6574 40.3446 0 26.0041 0ZM26.0041 3.25203C38.5876 3.25203 48.7457 13.4123 48.7457 25.9937C48.7457 31.4761 46.8161 36.4993 43.5986 40.4237C42.7739 33.763 38.2566 28.2505 32.1586 25.9958C34.4437 24.1778 35.9124 21.3767 35.9124 18.2426C35.9124 12.7867 31.4599 8.32203 26.0038 8.32203C20.548 8.32203 16.0853 12.7867 16.0853 18.2426C16.0853 21.3788 17.56 24.182 19.8492 25.9999C13.7497 28.2566 9.23398 33.7693 8.41135 40.4341C5.18574 36.5077 3.25197 31.4823 3.25197 25.9937C3.25197 13.4102 13.4207 3.25203 26.0041 3.25203ZM25.8335 11.5762C25.8904 11.5742 25.9472 11.5762 26.0041 11.5762C29.703 11.5762 32.6627 14.5459 32.6627 18.2447C32.6627 21.9436 29.7032 24.9033 26.0041 24.9033C22.3052 24.9033 19.3356 21.9437 19.3356 18.2447C19.3356 14.6026 22.2139 11.6677 25.8315 11.5762H25.8335ZM26.0041 28.1512C34.0537 28.1512 40.483 34.5799 40.483 42.6301V43.5563C36.5545 46.8002 31.5088 48.7461 26.0041 48.7461C20.5015 48.7461 15.4601 46.8022 11.5294 43.5603V42.63C11.5294 34.5804 17.954 28.1512 26.0041 28.1512Z" fill="white"/>
</svg>